<svg width="42" height="30" viewBox="0 0 42 30" fill="none" xmlns="http://www.w3.org/2000/svg">
<path d="M41.5409 13.3944L34.8177 6.67086L28.605 0.458528C27.9936 -0.152843 27.0033 -0.152843 26.3919 0.458528L12.3496 14.5008L16.6806 18.8322L21.0112 14.5015L27.4982 8.01338L30.5559 11.0706L33.986 14.5008L27.4982 20.9886L25.3384 18.8284L21.0078 23.1594L26.3919 28.5434C27.0033 29.1544 27.9936 29.1544 28.605 28.5434L34.6737 22.4743L41.5409 15.6072C42.1519 14.9962 42.1519 14.0054 41.5409 13.3944Z" fill="url(#paint0_linear_1495_6217)"/>
<path d="M25.3425 10.1716L25.3488 10.1751L25.3523 10.1716L29.6774 14.4992L18.8715 25.3058L18.8708 25.3023L15.6309 28.5418C15.0202 29.156 14.0293 29.156 13.4183 28.5418L0.481889 15.6083C0.356589 15.4819 0.258315 15.3415 0.183908 15.1871C-0.131974 14.5974 -0.0410707 13.8428 0.457671 13.3444L3.61719 10.2593L13.4183 0.459981C14.0293 -0.150723 15.0202 -0.150723 15.6309 0.459981L21.0107 5.83701L16.6803 10.1681L14.5246 8.01306L8.06445 14.4746L14.5397 20.9747L17.6269 17.8861L25.3425 10.1716Z" fill="#38C9FF"/>
<defs>
<linearGradient id="paint0_linear_1495_6217" x1="12.3496" y1="14.5008" x2="41.9991" y2="14.5008" gradientUnits="userSpaceOnUse">
<stop stop-color="#3870FF"/>
<stop offset="1" stop-color="#3844FF"/>
</linearGradient>
</defs>
</svg>
