<svg width="24" height="24" viewBox="0 0 24 24" fill="none" xmlns="http://www.w3.org/2000/svg">
<path d="M20.2825 10.356H11.9555V13.807H16.7475C16.3015 16 14.4345 17.26 11.9555 17.26C11.2619 17.2612 10.5748 17.1255 9.93371 16.8605C9.29263 16.5956 8.71016 16.2067 8.21971 15.7161C7.72926 15.2256 7.34048 14.6431 7.07566 14.0019C6.81085 13.3608 6.67521 12.6737 6.67653 11.98C6.67534 11.2865 6.81108 10.5995 7.07595 9.95845C7.34083 9.31743 7.72963 8.73501 8.22006 8.24457C8.7105 7.75414 9.29292 7.36533 9.93394 7.10046C10.575 6.83559 11.2619 6.69985 11.9555 6.70104C13.2145 6.70104 14.3525 7.14804 15.2455 7.87904L17.8455 5.28004C16.2615 3.89904 14.2305 3.04704 11.9555 3.04704C10.7813 3.0436 9.61805 3.27235 8.53258 3.7201C7.4471 4.16786 6.46086 4.82581 5.63058 5.65609C4.8003 6.48637 4.14235 7.47261 3.6946 8.55808C3.24684 9.64356 3.01809 10.8068 3.02153 11.981C3.01796 13.1553 3.24661 14.3186 3.69432 15.4041C4.14204 16.4897 4.79997 17.476 5.63028 18.3063C6.46059 19.1366 7.44689 19.7945 8.53242 20.2422C9.61795 20.6899 10.7813 20.9186 11.9555 20.915C16.4225 20.915 20.4845 17.666 20.4845 11.981C20.4845 11.453 20.4035 10.884 20.2825 10.356Z" fill="#3959FF"/>
</svg>
