<svg width="216" height="32" viewBox="0 0 216 32" fill="none" xmlns="http://www.w3.org/2000/svg">
<path d="M45.8348 14.7786L38.4169 7.36022L31.5622 0.505912C30.8876 -0.168637 29.7949 -0.168637 29.1203 0.505912L13.627 15.9993L18.4055 20.7783L23.1836 16.0001L23.1832 15.9993L30.341 8.84148L33.7146 12.2146L37.4993 15.9993L30.341 23.1575L27.958 20.7741L23.1799 25.5526L29.1203 31.4931C29.7949 32.1672 30.8876 32.1672 31.5622 31.4931L38.258 24.7968L45.8348 17.22C46.509 16.5459 46.509 15.4527 45.8348 14.7786Z" fill="#3844FF"/>
<path d="M27.9613 11.2237L27.9683 11.2276L27.9722 11.2237L32.7443 15.9985L20.8216 27.9219L20.8209 27.918L17.2462 31.4924C16.5723 32.17 15.4791 32.17 14.8049 31.4924L0.531687 17.2222C0.393439 17.0828 0.285009 16.9279 0.202912 16.7575C-0.145612 16.1069 -0.045315 15.2743 0.504967 14.7244L3.99099 11.3206L14.8049 0.508534C15.4791 -0.16528 16.5723 -0.16528 17.2462 0.508534L23.1819 6.44122L18.404 11.2199L16.0255 8.84215L8.89783 15.9714L16.0422 23.1433L19.4484 19.7355L27.9613 11.2237Z" fill="#38C9FF"/>
<path d="M53.8838 23.0417V8.79289H57.1556V20.19H61.1764V23.0417H53.8838Z" fill="#323232"/>
<path d="M62.0559 18.1331C62.0559 17.4111 62.1643 16.7387 62.3811 16.116C62.6045 15.4934 62.933 14.9502 63.3666 14.4865C63.8068 14.0161 64.3422 13.6452 64.9729 13.3736C65.6102 13.102 66.3395 12.9662 67.1607 12.9662C67.9426 12.9662 68.6455 13.0887 69.2697 13.3338C69.8938 13.5789 70.4227 13.9168 70.8563 14.3474C71.2965 14.7713 71.6349 15.2781 71.8714 15.8676C72.1079 16.4572 72.2262 17.0931 72.2262 17.7754C72.2262 17.9675 72.2196 18.1331 72.2065 18.2722C72.1933 18.4113 72.167 18.6167 72.1276 18.8883H65.1602C65.1602 19.1864 65.1963 19.4679 65.2686 19.7329C65.3474 19.9979 65.4657 20.2297 65.6234 20.4284C65.7876 20.6272 66.0044 20.7828 66.2738 20.8955C66.5432 21.0081 66.8717 21.0644 67.2593 21.0644C67.8112 21.0644 68.2251 20.9584 68.501 20.7464C68.7769 20.5278 68.9675 20.2628 69.0726 19.9515H72.1079C72.0291 20.4152 71.8615 20.8491 71.6053 21.2532C71.3556 21.6572 71.0304 22.0116 70.6297 22.3164C70.2289 22.6211 69.7493 22.8629 69.1908 23.0417C68.6324 23.2206 68.0017 23.31 67.2987 23.31C66.4512 23.31 65.6989 23.1775 65.0419 22.9125C64.3915 22.6476 63.8429 22.2799 63.3962 21.8096C62.956 21.3393 62.6209 20.7895 62.391 20.1602C62.1676 19.5308 62.0559 18.8552 62.0559 18.1331ZM65.1602 17.0997H69.2007C69.2007 16.5036 69.0135 16.0332 68.639 15.6888C68.2711 15.3377 67.7849 15.1621 67.1804 15.1621C66.6023 15.1621 66.1194 15.3311 65.7318 15.6689C65.3507 16.0001 65.1602 16.4771 65.1602 17.0997Z" fill="#323232"/>
<path d="M73.825 18.1331C73.825 17.3978 73.94 16.7155 74.1699 16.0862C74.4065 15.4569 74.7317 14.917 75.1456 14.4666C75.5661 14.0095 76.0555 13.6485 76.614 13.3835C77.1724 13.1185 77.7768 12.9861 78.4273 12.9861C79.1565 12.9861 79.7872 13.1417 80.3194 13.4531C80.8582 13.7644 81.2622 14.1586 81.5316 14.6355V13.2345H84.6162V23.0417H81.5316V21.6606C81.2885 22.111 80.8976 22.4952 80.3588 22.8132C79.8201 23.1311 79.1762 23.2901 78.4273 23.2901C77.7834 23.2901 77.179 23.1576 76.614 22.8927C76.0555 22.6277 75.5661 22.2667 75.1456 21.8096C74.7317 21.3525 74.4065 20.8093 74.1699 20.18C73.94 19.5507 73.825 18.8684 73.825 18.1331ZM76.8899 18.1331C76.8899 18.471 76.9457 18.7956 77.0574 19.1069C77.1757 19.4116 77.3334 19.6766 77.5305 19.9018C77.7341 20.1204 77.9772 20.2993 78.2597 20.4384C78.5422 20.5709 78.8576 20.6371 79.2058 20.6371C79.554 20.6371 79.8694 20.5709 80.1519 20.4384C80.441 20.2993 80.684 20.1204 80.8811 19.9018C81.0848 19.6766 81.2425 19.4116 81.3542 19.1069C81.4724 18.8022 81.5316 18.4776 81.5316 18.1331C81.5316 17.7953 81.4724 17.4773 81.3542 17.1792C81.2425 16.8811 81.0848 16.6162 80.8811 16.3843C80.684 16.1525 80.4442 15.9703 80.1617 15.8378C79.8792 15.7053 79.5606 15.6391 79.2058 15.6391C78.8576 15.6391 78.5422 15.7053 78.2597 15.8378C77.9772 15.9703 77.7341 16.1525 77.5305 16.3843C77.3334 16.6162 77.1757 16.8811 77.0574 17.1792C76.9457 17.4773 76.8899 17.7953 76.8899 18.1331Z" fill="#323232"/>
<path d="M86.7373 18.1133C86.7373 17.378 86.849 16.699 87.0724 16.0763C87.3023 15.4536 87.621 14.917 88.0283 14.4666C88.4422 14.0095 88.9317 13.6485 89.4967 13.3835C90.0617 13.1185 90.6826 12.9861 91.3593 12.9861C92.0426 12.9861 92.6569 13.1252 93.2022 13.4034C93.7475 13.6816 94.1679 14.0923 94.4636 14.6355V13.2345H97.5482V22.9821C97.5482 24.6647 97.1113 25.8769 96.2375 26.6188C95.3637 27.3674 94.0333 27.7416 92.2462 27.7416C91.2476 27.7416 90.4066 27.6357 89.7234 27.4237C89.0467 27.2183 88.4981 26.9368 88.0776 26.5791C87.6637 26.228 87.3615 25.8107 87.1709 25.3271C86.987 24.8501 86.8819 24.3401 86.8556 23.7969H89.9402C89.9927 24.2341 90.1898 24.6183 90.5315 24.9495C90.8797 25.2807 91.4184 25.4463 92.1477 25.4463C92.8178 25.4463 93.3697 25.2642 93.8033 24.8998C94.2435 24.5421 94.4636 23.9625 94.4636 23.161V21.6208C94.2074 22.0381 93.8197 22.3958 93.3007 22.6939C92.7817 22.992 92.1411 23.1411 91.379 23.1411C90.722 23.1411 90.1077 23.0218 89.5361 22.7834C88.9711 22.5383 88.4784 22.1905 88.0579 21.74C87.644 21.2896 87.3188 20.7563 87.0823 20.1403C86.8523 19.5242 86.7373 18.8485 86.7373 18.1133ZM89.8219 18.1331C89.8219 18.471 89.8778 18.7956 89.9895 19.1069C90.1077 19.4116 90.2654 19.6766 90.4625 19.9018C90.6662 20.1204 90.9092 20.2993 91.1918 20.4384C91.4743 20.5709 91.7929 20.6371 92.1477 20.6371C92.4827 20.6371 92.7948 20.5742 93.0839 20.4483C93.373 20.3158 93.6161 20.137 93.8132 19.9117C94.0168 19.6799 94.1745 19.4149 94.2862 19.1168C94.4045 18.8187 94.4636 18.4908 94.4636 18.1331C94.4636 17.7953 94.4045 17.4773 94.2862 17.1792C94.1745 16.8811 94.0168 16.6162 93.8132 16.3843C93.6161 16.1525 93.3763 15.9703 93.0938 15.8378C92.8112 15.7053 92.4959 15.6391 92.1477 15.6391C91.7995 15.6391 91.4776 15.7053 91.1819 15.8378C90.8928 15.9703 90.6465 16.1525 90.4428 16.3843C90.2457 16.6162 90.0913 16.8844 89.9796 17.1892C89.8745 17.4939 89.8219 17.8085 89.8219 18.1331Z" fill="#323232"/>
<path d="M100.093 19.0572V13.2345H103.158V18.2623C103.158 18.9645 103.283 19.5375 103.532 19.9813C103.782 20.4185 104.229 20.6371 104.873 20.6371C105.517 20.6371 105.99 20.4152 106.292 19.9714C106.601 19.5209 106.755 18.9148 106.755 18.153V13.2345H109.84V23.0417H106.755V21.6407C106.486 22.1574 106.075 22.5615 105.523 22.8529C104.971 23.1444 104.311 23.2901 103.542 23.2901C102.872 23.2901 102.32 23.1841 101.887 22.9722C101.46 22.7602 101.111 22.4919 100.842 22.1673C100.533 21.7897 100.33 21.3525 100.231 20.8557C100.139 20.3589 100.093 19.7594 100.093 19.0572Z" fill="#323232"/>
<path d="M111.951 18.1331C111.951 17.4111 112.059 16.7387 112.276 16.116C112.5 15.4934 112.828 14.9502 113.262 14.4865C113.702 14.0161 114.237 13.6452 114.868 13.3736C115.505 13.102 116.235 12.9662 117.056 12.9662C117.838 12.9662 118.541 13.0887 119.165 13.3338C119.789 13.5789 120.318 13.9168 120.751 14.3474C121.192 14.7713 121.53 15.2781 121.766 15.8676C122.003 16.4572 122.121 17.0931 122.121 17.7754C122.121 17.9675 122.115 18.1331 122.102 18.2722C122.088 18.4113 122.062 18.6167 122.023 18.8883H115.055C115.055 19.1864 115.091 19.4679 115.164 19.7329C115.242 19.9979 115.361 20.2297 115.518 20.4284C115.683 20.6272 115.899 20.7828 116.169 20.8955C116.438 21.0081 116.767 21.0644 117.154 21.0644C117.706 21.0644 118.12 20.9584 118.396 20.7464C118.672 20.5278 118.863 20.2628 118.968 19.9515H122.003C121.924 20.4152 121.757 20.8491 121.5 21.2532C121.251 21.6572 120.925 22.0116 120.525 22.3164C120.124 22.6211 119.644 22.8629 119.086 23.0417C118.527 23.2206 117.897 23.31 117.194 23.31C116.346 23.31 115.594 23.1775 114.937 22.9125C114.287 22.6476 113.738 22.2799 113.291 21.8096C112.851 21.3393 112.516 20.7895 112.286 20.1602C112.063 19.5308 111.951 18.8552 111.951 18.1331ZM115.055 17.0997H119.096C119.096 16.5036 118.909 16.0332 118.534 15.6888C118.166 15.3377 117.68 15.1621 117.076 15.1621C116.497 15.1621 116.014 15.3311 115.627 15.6689C115.246 16.0001 115.055 16.4771 115.055 17.0997Z" fill="#323232"/>
<path d="M123.681 19.7627H126.706C126.706 20.2794 126.851 20.6504 127.14 20.8756C127.429 21.1008 127.8 21.2134 128.253 21.2134C128.628 21.2134 128.933 21.1439 129.17 21.0048C129.413 20.859 129.534 20.6239 129.534 20.2993C129.534 20.1072 129.482 19.9515 129.377 19.8323C129.278 19.7064 129.124 19.5971 128.914 19.5044C128.703 19.405 128.434 19.3056 128.106 19.2063C127.777 19.1069 127.383 18.981 126.923 18.8287C126.509 18.6962 126.118 18.5604 125.75 18.4213C125.389 18.2755 125.07 18.0967 124.794 17.8847C124.518 17.6727 124.302 17.4144 124.144 17.1097C123.993 16.805 123.917 16.4274 123.917 15.9769C123.917 15.4602 124.019 15.0131 124.223 14.6355C124.426 14.2579 124.712 13.9466 125.08 13.7015C125.448 13.4564 125.888 13.2742 126.401 13.155C126.913 13.0291 127.478 12.9662 128.096 12.9662C128.851 12.9662 129.502 13.0523 130.047 13.2245C130.592 13.3968 131.039 13.6319 131.387 13.93C131.735 14.2281 131.992 14.5792 132.156 14.9833C132.327 15.3874 132.412 15.8213 132.412 16.285H129.367C129.367 15.8809 129.262 15.5662 129.052 15.341C128.848 15.1158 128.536 15.0032 128.115 15.0032C127.793 15.0032 127.518 15.076 127.288 15.2218C127.058 15.3609 126.943 15.5728 126.943 15.8577C126.943 16.0498 126.995 16.2055 127.1 16.3247C127.212 16.4373 127.373 16.54 127.583 16.6327C127.793 16.7255 128.053 16.8215 128.362 16.9209C128.671 17.0136 129.025 17.1262 129.426 17.2587C129.86 17.378 130.264 17.5104 130.638 17.6562C131.013 17.8019 131.341 17.9808 131.624 18.1927C131.913 18.3981 132.139 18.6598 132.304 18.9777C132.475 19.2891 132.56 19.6865 132.56 20.1701C132.56 20.7398 132.442 21.2267 132.205 21.6307C131.969 22.0282 131.65 22.3528 131.249 22.6045C130.855 22.8562 130.395 23.0351 129.87 23.1411C129.344 23.2537 128.792 23.31 128.214 23.31C126.775 23.31 125.658 23.0086 124.863 22.4058C124.075 21.7964 123.681 20.9153 123.681 19.7627Z" fill="#323232"/>
<path d="M139.059 18.1331C139.059 17.431 139.181 16.7685 139.424 16.1458C139.673 15.5232 140.031 14.9767 140.498 14.5063C140.964 14.036 141.529 13.6617 142.193 13.3835C142.857 13.1053 143.612 12.9662 144.46 12.9662C145.307 12.9662 146.063 13.1053 146.726 13.3835C147.396 13.6617 147.961 14.036 148.421 14.5063C148.888 14.9767 149.242 15.5232 149.486 16.1458C149.729 16.7685 149.85 17.431 149.85 18.1331C149.85 18.8353 149.729 19.501 149.486 20.1303C149.242 20.753 148.888 21.2995 148.421 21.7699C147.961 22.2402 147.396 22.6145 146.726 22.8927C146.063 23.1709 145.307 23.31 144.46 23.31C143.612 23.31 142.857 23.1709 142.193 22.8927C141.529 22.6145 140.964 22.2402 140.498 21.7699C140.031 21.2995 139.673 20.753 139.424 20.1303C139.181 19.5077 139.059 18.8419 139.059 18.1331ZM142.144 18.1331C142.144 18.4842 142.196 18.8121 142.301 19.1168C142.413 19.4149 142.567 19.6799 142.765 19.9117C142.968 20.137 143.211 20.3158 143.494 20.4483C143.776 20.5742 144.092 20.6371 144.44 20.6371C144.788 20.6371 145.107 20.5742 145.396 20.4483C145.691 20.3158 145.938 20.137 146.135 19.9117C146.339 19.6799 146.496 19.4149 146.608 19.1168C146.726 18.8187 146.785 18.4908 146.785 18.1331C146.785 17.7953 146.726 17.474 146.608 17.1693C146.496 16.8646 146.339 16.5996 146.135 16.3744C145.938 16.1492 145.695 15.9703 145.406 15.8378C145.117 15.7053 144.795 15.6391 144.44 15.6391C144.092 15.6391 143.776 15.7053 143.494 15.8378C143.211 15.9703 142.968 16.1492 142.765 16.3744C142.567 16.5996 142.413 16.8646 142.301 17.1693C142.196 17.474 142.144 17.7953 142.144 18.1331Z" fill="#323232"/>
<path d="M150.72 15.5497V13.2345H152.474V12.3799C152.474 11.4989 152.596 10.8034 152.839 10.2933C153.082 9.78322 153.377 9.40233 153.726 9.1506C154.074 8.89888 154.452 8.7399 154.859 8.67365C155.273 8.60741 155.654 8.57429 156.002 8.57429C156.475 8.57429 156.85 8.60079 157.126 8.65378C157.401 8.70678 157.635 8.76639 157.825 8.83264V11.0783C157.661 11.0385 157.507 11.0087 157.362 10.9888C157.224 10.9623 157.047 10.9491 156.83 10.9491C156.666 10.9491 156.508 10.9623 156.357 10.9888C156.206 11.0087 156.068 11.0617 155.943 11.1478C155.825 11.2339 155.726 11.3598 155.647 11.5254C155.575 11.6844 155.539 11.9063 155.539 12.1911V13.2345H157.825V15.5497H155.559V23.0417H152.474V15.5497H150.72Z" fill="#323232"/>
<path d="M163.822 15.9173C163.822 14.9435 163.986 14.0062 164.314 13.1053C164.643 12.1978 165.126 11.3995 165.763 10.7106C166.4 10.0151 167.186 9.46194 168.118 9.05124C169.058 8.64053 170.132 8.43518 171.341 8.43518C172.379 8.43518 173.312 8.58754 174.14 8.89226C174.968 9.19697 175.684 9.61761 176.288 10.1542C176.893 10.6841 177.376 11.3101 177.737 12.0322C178.105 12.7542 178.335 13.5193 178.427 14.3275H175.017C174.938 13.9101 174.803 13.5259 174.613 13.1749C174.429 12.8171 174.179 12.5091 173.864 12.2508C173.555 11.9858 173.194 11.7804 172.78 11.6347C172.373 11.4823 171.909 11.4062 171.39 11.4062C170.72 11.4062 170.119 11.532 169.587 11.7838C169.061 12.0289 168.618 12.3601 168.256 12.7774C167.895 13.1881 167.619 13.6684 167.429 14.2182C167.238 14.768 167.143 15.3344 167.143 15.9173C167.143 16.54 167.248 17.1262 167.458 17.6761C167.668 18.2259 167.958 18.7061 168.325 19.1168C168.7 19.5209 169.147 19.8422 169.666 20.0807C170.191 20.3191 170.779 20.4384 171.43 20.4384C172.382 20.4384 173.161 20.1966 173.765 19.713C174.37 19.2294 174.774 18.6366 174.978 17.9344H178.446C178.315 18.6962 178.056 19.405 177.668 20.0608C177.287 20.7166 176.797 21.2962 176.2 21.7997C175.602 22.3031 174.895 22.6973 174.081 22.9821C173.266 23.2669 172.369 23.4094 171.39 23.4094C170.208 23.4094 169.147 23.2073 168.207 22.8032C167.274 22.3925 166.479 21.846 165.822 21.1637C165.172 20.4748 164.676 19.6799 164.334 18.779C163.993 17.8781 163.822 16.9242 163.822 15.9173Z" fill="#323232"/>
<path d="M179.828 18.1331C179.828 17.431 179.95 16.7685 180.193 16.1458C180.443 15.5232 180.801 14.9767 181.267 14.5063C181.734 14.036 182.299 13.6617 182.962 13.3835C183.626 13.1053 184.381 12.9662 185.229 12.9662C186.077 12.9662 186.832 13.1053 187.496 13.3835C188.166 13.6617 188.731 14.036 189.191 14.5063C189.657 14.9767 190.012 15.5232 190.255 16.1458C190.498 16.7685 190.62 17.431 190.62 18.1331C190.62 18.8353 190.498 19.501 190.255 20.1303C190.012 20.753 189.657 21.2995 189.191 21.7699C188.731 22.2402 188.166 22.6145 187.496 22.8927C186.832 23.1709 186.077 23.31 185.229 23.31C184.381 23.31 183.626 23.1709 182.962 22.8927C182.299 22.6145 181.734 22.2402 181.267 21.7699C180.801 21.2995 180.443 20.753 180.193 20.1303C179.95 19.5077 179.828 18.8419 179.828 18.1331ZM182.913 18.1331C182.913 18.4842 182.966 18.8121 183.071 19.1168C183.182 19.4149 183.337 19.6799 183.534 19.9117C183.738 20.137 183.981 20.3158 184.263 20.4483C184.546 20.5742 184.861 20.6371 185.209 20.6371C185.557 20.6371 185.876 20.5742 186.165 20.4483C186.461 20.3158 186.707 20.137 186.904 19.9117C187.108 19.6799 187.266 19.4149 187.377 19.1168C187.496 18.8187 187.555 18.4908 187.555 18.1331C187.555 17.7953 187.496 17.474 187.377 17.1693C187.266 16.8646 187.108 16.5996 186.904 16.3744C186.707 16.1492 186.464 15.9703 186.175 15.8378C185.886 15.7053 185.564 15.6391 185.209 15.6391C184.861 15.6391 184.546 15.7053 184.263 15.8378C183.981 15.9703 183.738 16.1492 183.534 16.3744C183.337 16.5996 183.182 16.8646 183.071 17.1693C182.966 17.474 182.913 17.7953 182.913 18.1331Z" fill="#323232"/>
<path d="M192.071 18.1331C192.071 17.3978 192.186 16.7155 192.416 16.0862C192.652 15.4569 192.977 14.917 193.391 14.4666C193.812 14.0095 194.301 13.6485 194.86 13.3835C195.418 13.1185 196.022 12.9861 196.673 12.9861C197.402 12.9861 198.033 13.1417 198.565 13.4531C199.104 13.7644 199.508 14.1586 199.777 14.6355V8.79289H202.862V23.0417H199.777V21.6606C199.534 22.111 199.143 22.4952 198.604 22.8132C198.066 23.1311 197.422 23.2901 196.673 23.2901C196.029 23.2901 195.425 23.1576 194.86 22.8927C194.301 22.6277 193.812 22.2667 193.391 21.8096C192.977 21.3525 192.652 20.8093 192.416 20.18C192.186 19.5507 192.071 18.8684 192.071 18.1331ZM195.136 18.1331C195.136 18.471 195.191 18.7956 195.303 19.1069C195.421 19.4116 195.579 19.6766 195.776 19.9018C195.98 20.1204 196.223 20.2993 196.505 20.4384C196.788 20.5709 197.103 20.6371 197.451 20.6371C197.8 20.6371 198.115 20.5709 198.398 20.4384C198.687 20.2993 198.93 20.1204 199.127 19.9018C199.33 19.6766 199.488 19.4116 199.6 19.1069C199.718 18.8022 199.777 18.4776 199.777 18.1331C199.777 17.7953 199.718 17.4773 199.6 17.1792C199.488 16.8811 199.33 16.6162 199.127 16.3843C198.93 16.1525 198.69 15.9703 198.407 15.8378C198.125 15.7053 197.806 15.6391 197.451 15.6391C197.103 15.6391 196.788 15.7053 196.505 15.8378C196.223 15.9703 195.98 16.1525 195.776 16.3843C195.579 16.6162 195.421 16.8811 195.303 17.1792C195.191 17.4773 195.136 17.7953 195.136 18.1331Z" fill="#323232"/>
<path d="M204.963 18.1331C204.963 17.4111 205.072 16.7387 205.288 16.116C205.512 15.4934 205.84 14.9502 206.274 14.4865C206.714 14.0161 207.25 13.6452 207.88 13.3736C208.518 13.102 209.247 12.9662 210.068 12.9662C210.85 12.9662 211.553 13.0887 212.177 13.3338C212.801 13.5789 213.33 13.9168 213.764 14.3474C214.204 14.7713 214.542 15.2781 214.779 15.8676C215.015 16.4572 215.134 17.0931 215.134 17.7754C215.134 17.9675 215.127 18.1331 215.114 18.2722C215.101 18.4113 215.074 18.6167 215.035 18.8883H208.068C208.068 19.1864 208.104 19.4679 208.176 19.7329C208.255 19.9979 208.373 20.2297 208.531 20.4284C208.695 20.6272 208.912 20.7828 209.181 20.8955C209.451 21.0081 209.779 21.0644 210.167 21.0644C210.719 21.0644 211.132 20.9584 211.408 20.7464C211.684 20.5278 211.875 20.2628 211.98 19.9515H215.015C214.936 20.4152 214.769 20.8491 214.513 21.2532C214.263 21.6572 213.938 22.0116 213.537 22.3164C213.136 22.6211 212.657 22.8629 212.098 23.0417C211.54 23.2206 210.909 23.31 210.206 23.31C209.359 23.31 208.606 23.1775 207.949 22.9125C207.299 22.6476 206.75 22.2799 206.304 21.8096C205.863 21.3393 205.528 20.7895 205.298 20.1602C205.075 19.5308 204.963 18.8552 204.963 18.1331ZM208.068 17.0997H212.108C212.108 16.5036 211.921 16.0332 211.546 15.6888C211.178 15.3377 210.692 15.1621 210.088 15.1621C209.51 15.1621 209.027 15.3311 208.639 15.6689C208.258 16.0001 208.068 16.4771 208.068 17.0997Z" fill="#323232"/>
</svg>
