<svg width="24" height="24" viewBox="0 0 24 24" fill="none" xmlns="http://www.w3.org/2000/svg">
<path d="M13.362 16.9999C13.2272 16.9994 13.094 16.9717 12.9703 16.9184C12.8466 16.8652 12.7349 16.7874 12.642 16.6899L8.78195 12.6899C8.59872 12.503 8.49609 12.2517 8.49609 11.9899C8.49609 11.7282 8.59872 11.4769 8.78195 11.2899L12.782 7.28994C12.8752 7.1967 12.9859 7.12274 13.1077 7.07228C13.2295 7.02182 13.3601 6.99585 13.492 6.99585C13.6238 6.99585 13.7544 7.02182 13.8762 7.07228C13.998 7.12274 14.1087 7.1967 14.202 7.28994C14.2952 7.38318 14.3692 7.49387 14.4196 7.61569C14.4701 7.73751 14.496 7.86808 14.496 7.99994C14.496 8.1318 14.4701 8.26237 14.4196 8.38419C14.3692 8.50601 14.2952 8.6167 14.202 8.70994L10.902 11.9999L14.082 15.2999C14.2682 15.4873 14.3727 15.7408 14.3727 16.0049C14.3727 16.2691 14.2682 16.5226 14.082 16.7099C13.9873 16.8038 13.8749 16.8778 13.7512 16.9276C13.6276 16.9775 13.4952 17.002 13.362 16.9999Z" fill="#232339"/>
</svg>
