<svg width="48" height="48" viewBox="0 0 48 48" fill="none" xmlns="http://www.w3.org/2000/svg">
<rect x="0.5" y="0.5" width="47" height="47" rx="7.5" fill="url(#paint0_linear_2161_13517)"/>
<path d="M27 32.999H21V24.599C21 24.4399 21.0632 24.2873 21.1757 24.1748C21.2883 24.0623 21.4409 23.999 21.6 23.999H26.4C26.5591 23.999 26.7117 24.0623 26.8243 24.1748C26.9368 24.2873 27 24.4399 27 24.599V32.999V32.999ZM32.4 32.999H27V30.099C27 29.9399 27.0632 29.7873 27.1757 29.6748C27.2883 29.5623 27.4409 29.499 27.6 29.499H32.4C32.5591 29.499 32.7117 29.5623 32.8243 29.6748C32.9368 29.7873 33 29.9399 33 30.099V32.399C33 32.5582 32.9368 32.7108 32.8243 32.8233C32.7117 32.9358 32.5591 32.999 32.4 32.999V32.999ZM21 32.999V28.099C21 27.9399 20.9368 27.7873 20.8243 27.6748C20.7117 27.5623 20.5591 27.499 20.4 27.499H15.6C15.4409 27.499 15.2883 27.5623 15.1757 27.6748C15.0632 27.7873 15 27.9399 15 28.099V32.399C15 32.5582 15.0632 32.7108 15.1757 32.8233C15.2883 32.9358 15.4409 32.999 15.6 32.999H21V32.999ZM22.806 17.112L23.715 15.185C23.7395 15.13 23.7795 15.0832 23.8301 15.0503C23.8807 15.0175 23.9397 15 24 15C24.0603 15 24.1193 15.0175 24.1699 15.0503C24.2205 15.0832 24.2605 15.13 24.285 15.185L25.195 17.112L27.227 17.423C27.488 17.463 27.592 17.799 27.403 17.991L25.933 19.491L26.28 21.609C26.324 21.881 26.052 22.089 25.818 21.96L24 20.96L22.182 21.96C21.949 22.088 21.676 21.881 21.72 21.609L22.067 19.491L20.597 17.991C20.407 17.799 20.512 17.463 20.772 17.423L22.806 17.113V17.112Z" stroke="#3959FF" stroke-linecap="round" stroke-linejoin="round"/>
<rect x="0.5" y="0.5" width="47" height="47" rx="7.5" stroke="#DEE7EE"/>
<defs>
<linearGradient id="paint0_linear_2161_13517" x1="24" y1="0" x2="24" y2="48" gradientUnits="userSpaceOnUse">
<stop stop-color="white"/>
<stop offset="1" stop-color="#F2F7FC"/>
</linearGradient>
</defs>
</svg>
