<svg width="25" height="24" viewBox="0 0 25 24" fill="none" xmlns="http://www.w3.org/2000/svg">
<path d="M14.497 6.5H14.321L10.147 9.979L9.991 10.098C9.66878 10.3216 9.29372 10.4571 8.903 10.491L8.707 10.5L2.5 10.499V17.75L2.505 17.904C2.54402 18.4728 2.79751 19.0056 3.21425 19.3946C3.63098 19.7837 4.17987 20.0001 4.75 20H15.997V16.498H15.747C15.5481 16.498 15.3573 16.419 15.2167 16.2783C15.076 16.1377 14.997 15.9469 14.997 15.748C14.997 15.5491 15.076 15.3583 15.2167 15.2177C15.3573 15.077 15.5481 14.998 15.747 14.998H15.997V13.498H15.747C15.5481 13.498 15.3573 13.419 15.2167 13.2783C15.076 13.1377 14.997 12.9469 14.997 12.748C14.997 12.5491 15.076 12.3583 15.2167 12.2177C15.3573 12.077 15.5481 11.998 15.747 11.998H15.997V10.995H15.247C15.0481 10.995 14.8573 10.916 14.7167 10.7753C14.576 10.6347 14.497 10.4439 14.497 10.245V6.5ZM15.997 6.5H17.497V9.25H15.997V6.5ZM18.997 6.5H20.25C20.7928 6.49982 21.3174 6.69588 21.727 7.05204C22.1367 7.40819 22.4037 7.90043 22.479 8.438L22.495 8.596L22.5 8.75V17.75C22.5001 18.3201 22.2837 18.869 21.8946 19.2858C21.5056 19.7025 20.9728 19.956 20.404 19.995L20.25 20H17.497V18H17.747C17.9459 18 18.1367 17.921 18.2773 17.7803C18.418 17.6397 18.497 17.4489 18.497 17.25C18.497 17.0511 18.418 16.8603 18.2773 16.7197C18.1367 16.579 17.9459 16.5 17.747 16.5H17.497V15H17.747C17.9459 15 18.1367 14.921 18.2773 14.7803C18.418 14.6397 18.497 14.4489 18.497 14.25C18.497 14.0511 18.418 13.8603 18.2773 13.7197C18.1367 13.579 17.9459 13.5 17.747 13.5H17.497V10.995H18.247C18.4459 10.995 18.6367 10.916 18.7773 10.7753C18.918 10.6347 18.997 10.4439 18.997 10.245V6.5Z" fill="#ADB3CF"/>
<path d="M9.99 4.402C9.61358 4.14056 9.1663 4.00031 8.708 4H4.75L4.596 4.005C4.02721 4.04402 3.49444 4.29751 3.10537 4.71425C2.7163 5.13098 2.49993 5.67987 2.5 6.25V8.999L8.707 9L8.811 8.993C8.91432 8.9783 9.01343 8.94219 9.102 8.887L9.187 8.827L12.25 6.273L10.147 4.521L9.991 4.402H9.99Z" fill="#ADB3CF"/>
</svg>
