<svg width="24" height="25" viewBox="0 0 24 25" fill="none" xmlns="http://www.w3.org/2000/svg">
<path d="M20.0838 15.2028L21.2858 15.9238C21.36 15.9681 21.4214 16.031 21.464 16.1062C21.5066 16.1814 21.529 16.2663 21.529 16.3528C21.529 16.4392 21.5066 16.5241 21.464 16.5993C21.4214 16.6745 21.36 16.7374 21.2858 16.7818L12.5158 22.0438C12.3603 22.1372 12.1823 22.1866 12.0008 22.1866C11.8194 22.1866 11.6414 22.1372 11.4858 22.0438L2.71583 16.7818C2.64168 16.7374 2.5803 16.6745 2.53768 16.5993C2.49506 16.5241 2.47266 16.4392 2.47266 16.3528C2.47266 16.2663 2.49506 16.1814 2.53768 16.1062C2.5803 16.031 2.64168 15.9681 2.71583 15.9238L3.91783 15.2028L12.0008 20.0528L20.0838 15.2028ZM20.0838 10.5028L21.2858 11.2238C21.36 11.2681 21.4214 11.331 21.464 11.4062C21.5066 11.4814 21.529 11.5663 21.529 11.6528C21.529 11.7392 21.5066 11.8241 21.464 11.8993C21.4214 11.9745 21.36 12.0374 21.2858 12.0818L12.0008 17.6528L2.71583 12.0818C2.64168 12.0374 2.5803 11.9745 2.53768 11.8993C2.49506 11.8241 2.47266 11.7392 2.47266 11.6528C2.47266 11.5663 2.49506 11.4814 2.53768 11.4062C2.5803 11.331 2.64168 11.2681 2.71583 11.2238L3.91783 10.5028L12.0008 15.3528L20.0838 10.5028ZM12.5148 1.31176L21.2858 6.57376C21.36 6.61815 21.4214 6.681 21.464 6.75619C21.5066 6.83138 21.529 6.91633 21.529 7.00276C21.529 7.08918 21.5066 7.17413 21.464 7.24932C21.4214 7.32451 21.36 7.38736 21.2858 7.43176L12.0008 13.0028L2.71583 7.43176C2.64168 7.38736 2.5803 7.32451 2.53768 7.24932C2.49506 7.17413 2.47266 7.08918 2.47266 7.00276C2.47266 6.91633 2.49506 6.83138 2.53768 6.75619C2.5803 6.681 2.64168 6.61815 2.71583 6.57376L11.4858 1.31176C11.6414 1.21831 11.8194 1.16895 12.0008 1.16895C12.1823 1.16895 12.3603 1.21831 12.5158 1.31176H12.5148ZM12.0008 3.33476L5.88783 7.00276L12.0008 10.6708L18.1138 7.00276L12.0008 3.33476Z" fill="white"/>
</svg>
