<svg width="25" height="24" viewBox="0 0 25 24" fill="none" xmlns="http://www.w3.org/2000/svg">
<path d="M9.75038 7C10.0053 7.00028 10.2504 7.09788 10.4357 7.27285C10.6211 7.44782 10.7326 7.68695 10.7476 7.94139C10.7625 8.19584 10.6797 8.44638 10.5161 8.64183C10.3525 8.83729 10.1205 8.9629 9.86738 8.993L9.75038 9H7.75038C6.96947 8.99925 6.21905 9.30302 5.65856 9.84677C5.09807 10.3905 4.7717 11.1314 4.74878 11.912C4.72586 12.6925 5.00822 13.4513 5.53584 14.027C6.06347 14.6027 6.79478 14.9499 7.57438 14.995L7.75038 15H9.75038C10.0053 15.0003 10.2504 15.0979 10.4357 15.2728C10.6211 15.4478 10.7326 15.687 10.7476 15.9414C10.7625 16.1958 10.6797 16.4464 10.5161 16.6418C10.3525 16.8373 10.1205 16.9629 9.86738 16.993L9.75038 17H7.75038C6.44421 16.9983 5.19056 16.4856 4.25758 15.5714C3.3246 14.6573 2.78637 13.4144 2.75802 12.1085C2.72966 10.8027 3.21344 9.53756 4.10587 8.5838C4.9983 7.63005 6.22852 7.06337 7.53338 7.005L7.75038 7H9.75038ZM17.7504 7C19.0565 7.00169 20.3102 7.51443 21.2432 8.42856C22.1762 9.34268 22.7144 10.5856 22.7427 11.8915C22.7711 13.1973 22.2873 14.4624 21.3949 15.4162C20.5025 16.37 19.2722 16.9366 17.9674 16.995L17.7504 17H15.7504C15.4955 16.9997 15.2503 16.9021 15.065 16.7272C14.8797 16.5522 14.7681 16.313 14.7532 16.0586C14.7383 15.8042 14.8211 15.5536 14.9846 15.3582C15.1482 15.1627 15.3803 15.0371 15.6334 15.007L15.7504 15H17.7504C18.5313 15.0008 19.2817 14.697 19.8422 14.1532C20.4027 13.6095 20.7291 12.8686 20.752 12.088C20.7749 11.3075 20.4925 10.5487 19.9649 9.97303C19.4373 9.39733 18.706 9.05006 17.9264 9.005L17.7504 9H15.7504C15.4955 8.99972 15.2503 8.90212 15.065 8.72715C14.8797 8.55218 14.7681 8.31305 14.7532 8.05861C14.7383 7.80416 14.8211 7.55362 14.9846 7.35817C15.1482 7.16271 15.3803 7.0371 15.6334 7.007L15.7504 7H17.7504ZM7.75038 11H17.7504C18.0053 11.0003 18.2504 11.0979 18.4357 11.2728C18.6211 11.4478 18.7326 11.687 18.7476 11.9414C18.7625 12.1958 18.6797 12.4464 18.5161 12.6418C18.3525 12.8373 18.1205 12.9629 17.8674 12.993L17.7504 13H7.75038C7.4955 12.9997 7.25035 12.9021 7.06501 12.7272C6.87967 12.5522 6.76815 12.313 6.75321 12.0586C6.73827 11.8042 6.82105 11.5536 6.98464 11.3582C7.14823 11.1627 7.38028 11.0371 7.63338 11.007L7.75038 11H17.7504H7.75038Z" fill="#ADB3CF"/>
</svg>
