<svg width="24" height="25" viewBox="0 0 24 25" fill="none" xmlns="http://www.w3.org/2000/svg">
<path d="M4 6.00293H2V20.0029C2 21.1029 2.9 22.0029 4 22.0029H18V20.0029H4V6.00293ZM20 2.00293H8C6.9 2.00293 6 2.90293 6 4.00293V16.0029C6 17.1029 6.9 18.0029 8 18.0029H20C21.1 18.0029 22 17.1029 22 16.0029V4.00293C22 2.90293 21.1 2.00293 20 2.00293ZM20 16.0029H8V4.00293H20V16.0029ZM10 9.00293H18V11.0029H10V9.00293ZM10 12.0029H14V14.0029H10V12.0029ZM10 6.00293H18V8.00293H10V6.00293Z" fill="#ADB3CF"/>
</svg>
