<svg width="20" height="20" viewBox="0 0 20 20" fill="none" xmlns="http://www.w3.org/2000/svg">
<path d="M15.8333 2.50065H15V1.66732C15 1.20898 14.625 0.833984 14.1667 0.833984C13.7083 0.833984 13.3333 1.20898 13.3333 1.66732V2.50065H6.66667V1.66732C6.66667 1.20898 6.29167 0.833984 5.83333 0.833984C5.375 0.833984 5 1.20898 5 1.66732V2.50065H4.16667C3.24167 2.50065 2.50833 3.25065 2.50833 4.16732L2.5 15.834C2.5 16.276 2.67559 16.6999 2.98816 17.0125C3.30072 17.3251 3.72464 17.5007 4.16667 17.5007H15.8333C16.75 17.5007 17.5 16.7507 17.5 15.834V4.16732C17.5 3.25065 16.75 2.50065 15.8333 2.50065ZM15 15.834H5C4.54167 15.834 4.16667 15.459 4.16667 15.0007V6.66732H15.8333V15.0007C15.8333 15.459 15.4583 15.834 15 15.834ZM6.66667 8.33398H9.16667C9.625 8.33398 10 8.70898 10 9.16732V11.6673C10 12.1257 9.625 12.5007 9.16667 12.5007H6.66667C6.20833 12.5007 5.83333 12.1257 5.83333 11.6673V9.16732C5.83333 8.70898 6.20833 8.33398 6.66667 8.33398Z" fill="#ADB3CF"/>
</svg>
