<svg width="21" height="21" viewBox="0 0 21 21" fill="none" xmlns="http://www.w3.org/2000/svg">
<path d="M10.5613 1.03691C10.5262 1.03342 10.4927 1.02066 10.4641 0.999937C10.4355 0.979209 10.413 0.951259 10.3987 0.918945L11.8609 5.41928C12.1412 6.28369 12.688 7.03705 13.4227 7.57126C14.1574 8.10547 15.0424 8.39309 15.9506 8.39284H20.6806C20.5004 8.37657 20.4441 8.20166 20.5797 8.08301L16.7535 10.8627C16.0182 11.3969 15.471 12.1505 15.1903 13.0153C14.9096 13.8801 14.9099 14.8116 15.1911 15.6762L16.6526 20.1766C16.6442 20.152 16.6419 20.1259 16.6457 20.1002C16.6496 20.0746 16.6595 20.0503 16.6747 20.0293C16.6899 20.0083 16.7099 19.9913 16.7331 19.9796C16.7562 19.968 16.7818 19.962 16.8077 19.9623C16.845 19.9609 16.882 19.9688 16.9154 19.9854L13.09 17.2057C12.3551 16.6717 11.4702 16.3841 10.562 16.3841C9.65382 16.3841 8.76892 16.6717 8.03407 17.2057L4.20725 19.9854C4.24051 19.9683 4.27763 19.9601 4.31498 19.9617C4.34097 19.9614 4.36665 19.9673 4.38986 19.979C4.41308 19.9907 4.43316 20.0078 4.44842 20.0288C4.46369 20.0499 4.47368 20.0743 4.47758 20.1C4.48148 20.1257 4.47916 20.1519 4.47082 20.1766L5.9323 15.6756C6.21345 14.8109 6.21363 13.8793 5.9328 13.0145C5.65198 12.1497 5.10459 11.3962 4.36919 10.862L0.542362 8.08301C0.677872 8.20166 0.620958 8.37657 0.441406 8.39284H5.17141C6.07945 8.3928 6.9642 8.10525 7.69895 7.57136C8.4337 7.03747 8.98076 6.28463 9.2618 5.42064L10.7226 0.918945C10.7086 0.951155 10.6863 0.979057 10.6579 0.999788C10.6296 1.02052 10.5963 1.03333 10.5613 1.03691Z" fill="#E8C606"/>
</svg>
