<svg width="22" height="21" viewBox="0 0 22 21" fill="none" xmlns="http://www.w3.org/2000/svg">
<path d="M10.9363 1.03691C10.9012 1.03342 10.8677 1.02066 10.8391 0.999937C10.8105 0.979209 10.788 0.951259 10.7737 0.918945L12.2359 5.41928C12.5162 6.28369 13.063 7.03705 13.7977 7.57126C14.5324 8.10547 15.4174 8.39309 16.3256 8.39284H21.0549C20.8754 8.37657 20.8191 8.20165 20.9547 8.08301L17.1285 10.8627C16.3939 11.3975 15.8475 12.1513 15.5675 13.016C15.2876 13.8808 15.2885 14.812 15.5701 15.6762C16.0566 17.1754 16.5436 18.6751 17.0309 20.1752C17.0226 20.1507 17.0203 20.1245 17.0241 20.0989C17.028 20.0732 17.0379 20.0489 17.0531 20.0279C17.0683 20.0069 17.0883 19.9899 17.1115 19.9782C17.1346 19.9666 17.1602 19.9607 17.1861 19.961C17.2234 19.9595 17.2604 19.9674 17.2938 19.984L13.4684 17.2044C12.7335 16.6703 11.8486 16.3827 10.9404 16.3827C10.0322 16.3827 9.1473 16.6703 8.41246 17.2044L4.58564 19.984C4.6189 19.967 4.65601 19.9588 4.69337 19.9603C4.71936 19.96 4.74503 19.966 4.76825 19.9776C4.79147 19.9893 4.81155 20.0064 4.82681 20.0274C4.84207 20.0485 4.85207 20.0729 4.85597 20.0986C4.85986 20.1243 4.85755 20.1506 4.84921 20.1752C5.33614 18.6751 5.82308 17.1748 6.31001 15.6742C6.59155 14.8096 6.59199 13.878 6.31127 13.0131C6.03055 12.1483 5.4831 11.3947 4.74757 10.8606L0.917362 8.08301C1.05287 8.20165 0.995958 8.37657 0.816406 8.39284H5.54641C6.45484 8.39327 7.34006 8.10575 8.07504 7.57153C8.81003 7.03731 9.357 6.28386 9.63748 5.41928L11.099 0.918945C11.0848 0.951342 11.0623 0.979367 11.0337 1.00011C11.0051 1.02086 10.9715 1.03356 10.9363 1.03691Z" fill="#E8EAEC"/>
</svg>
