<svg width="52" height="39" viewBox="0 0 52 39" fill="none" xmlns="http://www.w3.org/2000/svg">
<path opacity="0.2" d="M0 11.6351C0 8.48517 1.06918 5.76834 3.20754 3.48463C5.38479 1.16154 8.26186 0 11.8388 0C15.4157 0 18.351 1.35841 20.6449 4.07524C22.9777 6.79207 24.1441 10.9657 24.1441 16.5963C24.1441 23.7624 22.1418 29.2551 18.1372 33.0744C14.1715 36.8544 8.32018 38.7443 0.58319 38.7443V31.5979C2.95483 31.5979 4.97655 31.3223 6.64837 30.771C8.35906 30.1804 9.77815 29.452 10.9057 28.5858C12.9663 26.8927 14.1132 24.7861 14.3465 22.2662C13.8799 22.7387 12.733 22.9946 10.9057 23.034C7.71755 23.034 5.09319 21.9315 3.03259 19.7265C1.01086 17.4822 0 14.7851 0 11.6351ZM26.8851 11.6351C26.8851 8.48517 27.9542 5.76834 30.0926 3.48463C32.2698 1.16154 35.1469 0 38.7238 0C42.3007 0 45.2361 1.35841 47.53 4.07524C49.8627 6.79207 51.0291 10.9657 51.0291 16.5963C51.0291 23.8412 48.988 29.3536 44.9056 33.1335C40.8622 36.8741 35.0497 38.7443 27.4682 38.7443V31.5979C29.8399 31.5979 31.8616 31.3223 33.5334 30.771C35.2441 30.1804 36.6438 29.452 37.7324 28.5858C38.8599 27.6801 39.6764 26.6761 40.1818 25.5736C40.7261 24.4318 41.076 23.2899 41.2315 22.1481C41.076 22.3056 40.6872 22.5024 40.0652 22.7387C39.482 22.9355 38.7044 23.034 37.7324 23.034C34.622 23.034 32.0366 21.9315 29.976 19.7265C27.9154 17.4822 26.8851 14.7851 26.8851 11.6351Z" fill="white"/>
</svg>
