<svg width="25" height="24" viewBox="0 0 25 24" fill="none" xmlns="http://www.w3.org/2000/svg">
<path d="M6.5 4H18C18.8301 3.99995 19.6288 4.31755 20.2322 4.88767C20.8356 5.45779 21.198 6.23719 21.245 7.066L21.25 7.25V16.75C21.2501 17.5801 20.9324 18.3788 20.3623 18.9822C19.7922 19.5856 19.0128 19.948 18.184 19.995L18 20H6.5C5.66986 20.0001 4.87117 19.6824 4.26777 19.1123C3.66437 18.5422 3.302 17.7628 3.255 16.934L3.25 16.75V7.25C3.24995 6.41986 3.56755 5.62117 4.13767 5.01777C4.70779 4.41437 5.48719 4.052 6.316 4.005L6.5 4H18H6.5ZM10.303 9.585C10.268 9.65483 10.2498 9.73189 10.25 9.81V14.192C10.25 14.2773 10.2718 14.3611 10.3133 14.4356C10.3549 14.51 10.4148 14.5726 10.4873 14.6174C10.5599 14.6622 10.6427 14.6877 10.7279 14.6915C10.813 14.6953 10.8978 14.6772 10.974 14.639L15.356 12.449C15.4392 12.4075 15.5092 12.3437 15.5581 12.2646C15.607 12.1856 15.633 12.0945 15.633 12.0015C15.633 11.9085 15.607 11.8174 15.5581 11.7384C15.5092 11.6593 15.4392 11.5955 15.356 11.554L10.974 9.363C10.8554 9.3036 10.7182 9.29372 10.5923 9.33554C10.4665 9.37736 10.3624 9.46745 10.303 9.586V9.585Z" fill="#ADB3CF"/>
</svg>
